<svg xmlns="http://www.w3.org/2000/svg" version="1.1" xmlns:xlink="http://www.w3.org/1999/xlink" xmlns:svgjs="http://svgjs.com/svgjs" width="1440" height="560" preserveAspectRatio="none" viewBox="0 0 1440 560"><g mask="url(&quot;#SvgjsMask1011&quot;)" fill="none"><path d="M-209.23 248.01C-86.31 251.48-3.63 423.2 246.61 432.81 496.85 442.42 574.94 656.65 702.45 663.06" stroke="rgba(255, 255, 255, 0.8)" stroke-width="2"></path><path d="M-58.66 416.56C113.59 410.73 329.59 140.47 573.77 142.16 817.96 143.85 757.27 580.64 889.99 649.24" stroke="rgba(255, 255, 255, 0.8)" stroke-width="2"></path><path d="M-160.11 206.41C11.53 208.66 149.22 401.74 496.24 408.01 843.25 414.28 977.02 654.08 1152.58 658.28" stroke="rgba(255, 255, 255, 0.8)" stroke-width="2"></path><path d="M-69.32 354.25C103.05 353.75 347.58 229.4 609.05 231.05 870.53 232.7 827.93 563.79 948.24 596.12" stroke="rgba(255, 255, 255, 0.8)" stroke-width="2"></path><path d="M-193.76 254.15C-76.31 254.35 38.51 324.15 270.78 324.15 503.05 324.15 489.6 249.66 735.33 254.15 981.05 258.64 1050.09 620.51 1199.87 645.38" stroke="rgba(255, 255, 255, 0.8)" stroke-width="2"></path></g><defs><mask id="SvgjsMask1011"><rect width="1440" height="560" fill="#ffffff"></rect></mask></defs></svg>