<svg xmlns="http://www.w3.org/2000/svg" version="1.1" xmlns:xlink="http://www.w3.org/1999/xlink" xmlns:svgjs="http://svgjs.com/svgjs" width="1440" height="560" preserveAspectRatio="none" viewBox="0 0 1440 560"><g mask="url(&quot;#SvgjsMask1005&quot;)" fill="none"><path d="M1603.86 95.43C1452.42 98.89 1321.98 308.43 1036.56 308.23 751.13 308.03 634.11-19.08 469.25-31.77" stroke="rgba(255, 255, 255, 0.8)" stroke-width="2"></path><path d="M1605.4 187.01C1417.51 189.4 1252.48 406.68 886.23 405.41 519.98 404.14 384.3-67.83 167.06-91.17" stroke="rgba(255, 255, 255, 0.8)" stroke-width="2"></path><path d="M1489.78 125.51C1389.51 125.24 1292.32 55.51 1094.86 55.51 897.4 55.51 900.07 125.95 699.94 125.51 499.81 125.07 415.59-69.27 305.02-74.9" stroke="rgba(255, 255, 255, 0.8)" stroke-width="2"></path><path d="M1463.2 470.88C1294.59 469.4 1165.31 308.58 811.48 297.28 457.64 285.98 347.84-68.97 159.75-82.49" stroke="rgba(255, 255, 255, 0.8)" stroke-width="2"></path><path d="M1629.38 410.02C1524.94 406.38 1463.38 254.67 1246.63 242.02 1029.88 229.37 976.68 9.74 863.88-0.14" stroke="rgba(255, 255, 255, 0.8)" stroke-width="2"></path></g><defs><mask id="SvgjsMask1005"><rect width="1440" height="560" fill="#ffffff"></rect></mask></defs></svg>