<svg xmlns="http://www.w3.org/2000/svg" version="1.1" xmlns:xlink="http://www.w3.org/1999/xlink" xmlns:svgjs="http://svgjs.com/svgjs" width="1440" height="560" preserveAspectRatio="none" viewBox="0 0 1440 560"><g mask="url(&quot;#SvgjsMask1002&quot;)" fill="none"><path d="M803.49-110.22C628.69-81.08 536.67 346.21 261.72 346.91-13.23 347.61-129.03 85.36-280.05 78.11" stroke="rgba(255, 255, 255, 0.8)" stroke-width="2"></path><path d="M1370.45-95.91C1160.93-74.34 1027.75 375.68 673.06 376.79 318.36 377.9 157.93 166.34-24.34 163.99" stroke="rgba(255, 255, 255, 0.8)" stroke-width="2"></path><path d="M564.69-30.63C444.6 55.45 520.39 490.26 303.77 499.67 87.15 509.08-81.86 344.55-218.07 342.87" stroke="rgba(255, 255, 255, 0.8)" stroke-width="2"></path><path d="M733.37-108.21C639.43-96.24 685.26 104.73 429.59 118.07 173.92 131.41-14.64 354.53-177.97 358.87" stroke="rgba(255, 255, 255, 0.8)" stroke-width="2"></path><path d="M861.72-15.01C748.3 19 788.77 340.56 549.97 341.58 311.18 342.6 87.55 180.51-73.52 179.18" stroke="rgba(255, 255, 255, 0.8)" stroke-width="2"></path></g><defs><mask id="SvgjsMask1002"><rect width="1440" height="560" fill="#ffffff"></rect></mask></defs></svg>