<svg xmlns="http://www.w3.org/2000/svg" version="1.1" xmlns:xlink="http://www.w3.org/1999/xlink" xmlns:svgjs="http://svgjs.com/svgjs" width="1440" height="560" preserveAspectRatio="none" viewBox="0 0 1440 560"><g mask="url(&quot;#SvgjsMask1019&quot;)" fill="none"><path d="M872.27 670.55C987.09 606.34 927.38 221.39 1139.84 217.43 1352.29 213.47 1534.34 388.88 1674.97 391.03" stroke="rgba(19, 19, 19, 0.6)" stroke-width="2"></path><path d="M102.56 660.6C304.21 649.32 436.46 292.43 817.33 284.09 1198.19 275.75 1349.45 133.71 1532.09 132.89" stroke="rgba(19, 19, 19, 0.6)" stroke-width="2"></path><path d="M553.35 560.84C708.37 557.43 822.28 354.06 1135.09 345.74 1447.89 337.42 1558.96 104.35 1716.82 99.34" stroke="rgba(19, 19, 19, 0.6)" stroke-width="2"></path><path d="M327 610.78C464.75 594.78 544.01 290.65 778.33 288.29 1012.64 285.93 1003.99 358.29 1229.65 358.29 1455.32 358.29 1566.8 288.5 1680.98 288.29" stroke="rgba(19, 19, 19, 0.6)" stroke-width="2"></path><path d="M800.58 623.53C907.28 581.09 831.28 276.24 1073.73 254.25 1316.18 232.26 1477.94 98.99 1620.02 97.45" stroke="rgba(19, 19, 19, 0.6)" stroke-width="2"></path></g><defs><mask id="SvgjsMask1019"><rect width="1440" height="560" fill="#ffffff"></rect></mask></defs></svg>