<svg xmlns="http://www.w3.org/2000/svg" version="1.1" xmlns:xlink="http://www.w3.org/1999/xlink" xmlns:svgjs="http://svgjs.com/svgjs" width="1440" height="560" preserveAspectRatio="none" viewBox="0 0 1440 560"><g mask="url(&quot;#SvgjsMask1042&quot;)" fill="none"><path d="M260 144L58 346" stroke-width="6" stroke="url(#SvgjsLinearGradient1043)" stroke-linecap="round" class="TopRight"></path><path d="M1261 107L905 463" stroke-width="10" stroke="url(#SvgjsLinearGradient1043)" stroke-linecap="round" class="TopRight"></path><path d="M661 456L825 292" stroke-width="10" stroke="url(#SvgjsLinearGradient1043)" stroke-linecap="round" class="TopRight"></path><path d="M1115 82L1455 -258" stroke-width="8" stroke="url(#SvgjsLinearGradient1044)" stroke-linecap="round" class="BottomLeft"></path><path d="M557 358L716 199" stroke-width="8" stroke="url(#SvgjsLinearGradient1043)" stroke-linecap="round" class="TopRight"></path><path d="M410 387L599 198" stroke-width="8" stroke="url(#SvgjsLinearGradient1043)" stroke-linecap="round" class="TopRight"></path><path d="M930 109L642 397" stroke-width="10" stroke="url(#SvgjsLinearGradient1044)" stroke-linecap="round" class="BottomLeft"></path><path d="M652 378L314 716" stroke-width="6" stroke="url(#SvgjsLinearGradient1043)" stroke-linecap="round" class="TopRight"></path><path d="M398 392L124 666" stroke-width="6" stroke="url(#SvgjsLinearGradient1044)" stroke-linecap="round" class="BottomLeft"></path><path d="M766 131L1080 -183" stroke-width="10" stroke="url(#SvgjsLinearGradient1044)" stroke-linecap="round" class="BottomLeft"></path><path d="M294 495L529 260" stroke-width="10" stroke="url(#SvgjsLinearGradient1044)" stroke-linecap="round" class="BottomLeft"></path><path d="M124 295L537 -118" stroke-width="6" stroke="url(#SvgjsLinearGradient1044)" stroke-linecap="round" class="BottomLeft"></path><path d="M1040 461L1388 113" stroke-width="10" stroke="url(#SvgjsLinearGradient1043)" stroke-linecap="round" class="TopRight"></path><path d="M1247 310L921 636" stroke-width="10" stroke="url(#SvgjsLinearGradient1044)" stroke-linecap="round" class="BottomLeft"></path><path d="M543 47L925 -335" stroke-width="8" stroke="url(#SvgjsLinearGradient1043)" stroke-linecap="round" class="TopRight"></path><path d="M973 495L1348 120" stroke-width="8" stroke="url(#SvgjsLinearGradient1043)" stroke-linecap="round" class="TopRight"></path><path d="M476 34L794 -284" stroke-width="8" stroke="url(#SvgjsLinearGradient1044)" stroke-linecap="round" class="BottomLeft"></path><path d="M825 218L448 595" stroke-width="6" stroke="url(#SvgjsLinearGradient1044)" stroke-linecap="round" class="BottomLeft"></path><path d="M382 292L-29 703" stroke-width="6" stroke="url(#SvgjsLinearGradient1043)" stroke-linecap="round" class="TopRight"></path><path d="M831 432L1048 215" stroke-width="6" stroke="url(#SvgjsLinearGradient1043)" stroke-linecap="round" class="TopRight"></path><path d="M1407 37L1820 -376" stroke-width="10" stroke="url(#SvgjsLinearGradient1043)" stroke-linecap="round" class="TopRight"></path><path d="M1309 118L1475 -48" stroke-width="6" stroke="url(#SvgjsLinearGradient1043)" stroke-linecap="round" class="TopRight"></path><path d="M1397 114L1075 436" stroke-width="6" stroke="url(#SvgjsLinearGradient1043)" stroke-linecap="round" class="TopRight"></path><path d="M476 203L721 -42" stroke-width="8" stroke="url(#SvgjsLinearGradient1043)" stroke-linecap="round" class="TopRight"></path><path d="M746 72L497 321" stroke-width="10" stroke="url(#SvgjsLinearGradient1043)" stroke-linecap="round" class="TopRight"></path><path d="M1163 533L1412 284" stroke-width="8" stroke="url(#SvgjsLinearGradient1044)" stroke-linecap="round" class="BottomLeft"></path><path d="M1206 129L798 537" stroke-width="8" stroke="url(#SvgjsLinearGradient1044)" stroke-linecap="round" class="BottomLeft"></path><path d="M1404 468L1174 698" stroke-width="6" stroke="url(#SvgjsLinearGradient1044)" stroke-linecap="round" class="BottomLeft"></path><path d="M1076 315L847 544" stroke-width="10" stroke="url(#SvgjsLinearGradient1044)" stroke-linecap="round" class="BottomLeft"></path><path d="M645 493L1061 77" stroke-width="6" stroke="url(#SvgjsLinearGradient1044)" stroke-linecap="round" class="BottomLeft"></path><path d="M12 83L380 -285" stroke-width="8" stroke="url(#SvgjsLinearGradient1043)" stroke-linecap="round" class="TopRight"></path><path d="M1127 549L707 969" stroke-width="6" stroke="url(#SvgjsLinearGradient1044)" stroke-linecap="round" class="BottomLeft"></path><path d="M422 66L6 482" stroke-width="10" stroke="url(#SvgjsLinearGradient1043)" stroke-linecap="round" class="TopRight"></path><path d="M1355 44L1517 -118" stroke-width="10" stroke="url(#SvgjsLinearGradient1044)" stroke-linecap="round" class="BottomLeft"></path><path d="M801 308L409 700" stroke-width="10" stroke="url(#SvgjsLinearGradient1043)" stroke-linecap="round" class="TopRight"></path><path d="M1190 455L1416 229" stroke-width="8" stroke="url(#SvgjsLinearGradient1043)" stroke-linecap="round" class="TopRight"></path><path d="M874 446L1093 227" stroke-width="10" stroke="url(#SvgjsLinearGradient1044)" stroke-linecap="round" class="BottomLeft"></path><path d="M22 214L-247 483" stroke-width="6" stroke="url(#SvgjsLinearGradient1044)" stroke-linecap="round" class="BottomLeft"></path><path d="M250 113L557 -194" stroke-width="6" stroke="url(#SvgjsLinearGradient1043)" stroke-linecap="round" class="TopRight"></path></g><defs><mask id="SvgjsMask1042"><rect width="1440" height="560" fill="#ffffff"></rect></mask><linearGradient x1="0%" y1="100%" x2="100%" y2="0%" id="SvgjsLinearGradient1043"><stop stop-color="rgba(255, 255, 255, 0)" offset="0"></stop><stop stop-color="rgba(255, 255, 255, 0.8)" offset="1"></stop></linearGradient><linearGradient x1="100%" y1="0%" x2="0%" y2="100%" id="SvgjsLinearGradient1044"><stop stop-color="rgba(255, 255, 255, 0)" offset="0"></stop><stop stop-color="rgba(255, 255, 255, 0.8)" offset="1"></stop></linearGradient></defs></svg>