<svg xmlns="http://www.w3.org/2000/svg" version="1.1" xmlns:xlink="http://www.w3.org/1999/xlink" xmlns:svgjs="http://svgjs.com/svgjs" width="1440" height="560" preserveAspectRatio="none" viewBox="0 0 1440 560"><g mask="url(&quot;#SvgjsMask1039&quot;)" fill="none"><path d="M803 79L595 -129" stroke-width="10" stroke="url(#SvgjsLinearGradient1040)" stroke-linecap="round" class="BottomRight"></path><path d="M1039 461L1314 736" stroke-width="8" stroke="url(#SvgjsLinearGradient1040)" stroke-linecap="round" class="BottomRight"></path><path d="M1090 222L910 42" stroke-width="10" stroke="url(#SvgjsLinearGradient1040)" stroke-linecap="round" class="BottomRight"></path><path d="M1243 51L1621 429" stroke-width="10" stroke="url(#SvgjsLinearGradient1040)" stroke-linecap="round" class="BottomRight"></path><path d="M925 265L660 0" stroke-width="6" stroke="url(#SvgjsLinearGradient1041)" stroke-linecap="round" class="TopLeft"></path><path d="M23 54L247 278" stroke-width="8" stroke="url(#SvgjsLinearGradient1040)" stroke-linecap="round" class="BottomRight"></path><path d="M159 440L561 842" stroke-width="10" stroke="url(#SvgjsLinearGradient1041)" stroke-linecap="round" class="TopLeft"></path><path d="M975 443L1345 813" stroke-width="6" stroke="url(#SvgjsLinearGradient1041)" stroke-linecap="round" class="TopLeft"></path><path d="M1085 400L701 16" stroke-width="8" stroke="url(#SvgjsLinearGradient1040)" stroke-linecap="round" class="BottomRight"></path><path d="M474 24L170 -280" stroke-width="6" stroke="url(#SvgjsLinearGradient1041)" stroke-linecap="round" class="TopLeft"></path><path d="M1301 459L901 59" stroke-width="8" stroke="url(#SvgjsLinearGradient1040)" stroke-linecap="round" class="BottomRight"></path><path d="M1067 455L831 219" stroke-width="6" stroke="url(#SvgjsLinearGradient1041)" stroke-linecap="round" class="TopLeft"></path><path d="M1023 5L1261 243" stroke-width="8" stroke="url(#SvgjsLinearGradient1040)" stroke-linecap="round" class="BottomRight"></path><path d="M624 247L797 420" stroke-width="6" stroke="url(#SvgjsLinearGradient1041)" stroke-linecap="round" class="TopLeft"></path><path d="M78 551L-171 302" stroke-width="8" stroke="url(#SvgjsLinearGradient1041)" stroke-linecap="round" class="TopLeft"></path><path d="M983 316L1174 507" stroke-width="6" stroke="url(#SvgjsLinearGradient1040)" stroke-linecap="round" class="BottomRight"></path><path d="M565 84L872 391" stroke-width="8" stroke="url(#SvgjsLinearGradient1041)" stroke-linecap="round" class="TopLeft"></path><path d="M23 334L420 731" stroke-width="10" stroke="url(#SvgjsLinearGradient1041)" stroke-linecap="round" class="TopLeft"></path><path d="M1420 160L1821 561" stroke-width="6" stroke="url(#SvgjsLinearGradient1041)" stroke-linecap="round" class="TopLeft"></path><path d="M1169 80L863 -226" stroke-width="8" stroke="url(#SvgjsLinearGradient1040)" stroke-linecap="round" class="BottomRight"></path><path d="M644 14L357 -273" stroke-width="10" stroke="url(#SvgjsLinearGradient1040)" stroke-linecap="round" class="BottomRight"></path><path d="M1001 477L1407 883" stroke-width="6" stroke="url(#SvgjsLinearGradient1041)" stroke-linecap="round" class="TopLeft"></path><path d="M637 237L244 -156" stroke-width="6" stroke="url(#SvgjsLinearGradient1041)" stroke-linecap="round" class="TopLeft"></path><path d="M808 268L1199 659" stroke-width="10" stroke="url(#SvgjsLinearGradient1040)" stroke-linecap="round" class="BottomRight"></path><path d="M713 23L539 -151" stroke-width="6" stroke="url(#SvgjsLinearGradient1041)" stroke-linecap="round" class="TopLeft"></path><path d="M1420 340L1837 757" stroke-width="6" stroke="url(#SvgjsLinearGradient1041)" stroke-linecap="round" class="TopLeft"></path><path d="M105 72L394 361" stroke-width="10" stroke="url(#SvgjsLinearGradient1040)" stroke-linecap="round" class="BottomRight"></path><path d="M169 52L581 464" stroke-width="6" stroke="url(#SvgjsLinearGradient1041)" stroke-linecap="round" class="TopLeft"></path><path d="M1357 252L1161 56" stroke-width="8" stroke="url(#SvgjsLinearGradient1040)" stroke-linecap="round" class="BottomRight"></path><path d="M1035 49L796 -190" stroke-width="6" stroke="url(#SvgjsLinearGradient1041)" stroke-linecap="round" class="TopLeft"></path><path d="M961 164L1250 453" stroke-width="8" stroke="url(#SvgjsLinearGradient1040)" stroke-linecap="round" class="BottomRight"></path><path d="M717 99L1088 470" stroke-width="8" stroke="url(#SvgjsLinearGradient1041)" stroke-linecap="round" class="TopLeft"></path><path d="M403 164L683 444" stroke-width="10" stroke="url(#SvgjsLinearGradient1040)" stroke-linecap="round" class="BottomRight"></path><path d="M621 5L763 147" stroke-width="8" stroke="url(#SvgjsLinearGradient1041)" stroke-linecap="round" class="TopLeft"></path><path d="M79 255L380 556" stroke-width="8" stroke="url(#SvgjsLinearGradient1041)" stroke-linecap="round" class="TopLeft"></path><path d="M1230 311L1398 479" stroke-width="8" stroke="url(#SvgjsLinearGradient1041)" stroke-linecap="round" class="TopLeft"></path><path d="M711 209L909 407" stroke-width="6" stroke="url(#SvgjsLinearGradient1041)" stroke-linecap="round" class="TopLeft"></path><path d="M360 285L205 130" stroke-width="8" stroke="url(#SvgjsLinearGradient1040)" stroke-linecap="round" class="BottomRight"></path><path d="M246 27L89 -130" stroke-width="8" stroke="url(#SvgjsLinearGradient1041)" stroke-linecap="round" class="TopLeft"></path></g><defs><mask id="SvgjsMask1039"><rect width="1440" height="560" fill="#ffffff"></rect></mask><linearGradient x1="0%" y1="0%" x2="100%" y2="100%" id="SvgjsLinearGradient1040"><stop stop-color="rgba(19, 19, 19, 0)" offset="0"></stop><stop stop-color="rgba(19, 19, 19, 0.6)" offset="1"></stop></linearGradient><linearGradient x1="100%" y1="100%" x2="0%" y2="0%" id="SvgjsLinearGradient1041"><stop stop-color="rgba(19, 19, 19, 0)" offset="0"></stop><stop stop-color="rgba(19, 19, 19, 0.6)" offset="1"></stop></linearGradient></defs></svg>