<svg xmlns="http://www.w3.org/2000/svg" version="1.1" xmlns:xlink="http://www.w3.org/1999/xlink" xmlns:svgjs="http://svgjs.com/svgjs" width="1440" height="560" preserveAspectRatio="none" viewBox="0 0 1440 560"><g mask="url(&quot;#SvgjsMask1024&quot;)" fill="none"><path d="M374 85L-648 84" stroke-width="10" stroke="url(#SvgjsLinearGradient1025)" stroke-linecap="round" class="Left"></path><path d="M1005 305L1448 304" stroke-width="8" stroke="url(#SvgjsLinearGradient1025)" stroke-linecap="round" class="Left"></path><path d="M251 266L-678 265" stroke-width="6" stroke="url(#SvgjsLinearGradient1026)" stroke-linecap="round" class="Right"></path><path d="M761 71L-238 70" stroke-width="8" stroke="url(#SvgjsLinearGradient1026)" stroke-linecap="round" class="Right"></path><path d="M1214 481L1953 480" stroke-width="10" stroke="url(#SvgjsLinearGradient1026)" stroke-linecap="round" class="Right"></path><path d="M444 391L1114 390" stroke-width="8" stroke="url(#SvgjsLinearGradient1025)" stroke-linecap="round" class="Left"></path><path d="M75 464L1041 463" stroke-width="10" stroke="url(#SvgjsLinearGradient1025)" stroke-linecap="round" class="Left"></path><path d="M57 513L-420 512" stroke-width="10" stroke="url(#SvgjsLinearGradient1026)" stroke-linecap="round" class="Right"></path><path d="M720 247L-130 246" stroke-width="10" stroke="url(#SvgjsLinearGradient1025)" stroke-linecap="round" class="Left"></path><path d="M1013 293L1529 292" stroke-width="6" stroke="url(#SvgjsLinearGradient1026)" stroke-linecap="round" class="Right"></path><path d="M1320 420L1715 419" stroke-width="6" stroke="url(#SvgjsLinearGradient1025)" stroke-linecap="round" class="Left"></path><path d="M958 147L-90 146" stroke-width="6" stroke="url(#SvgjsLinearGradient1025)" stroke-linecap="round" class="Left"></path><path d="M679 141L-378 140" stroke-width="6" stroke="url(#SvgjsLinearGradient1025)" stroke-linecap="round" class="Left"></path><path d="M659 545L1603 544" stroke-width="10" stroke="url(#SvgjsLinearGradient1026)" stroke-linecap="round" class="Right"></path></g><defs><mask id="SvgjsMask1024"><rect width="1440" height="560" fill="#ffffff"></rect></mask><linearGradient x1="100%" y1="0%" x2="0%" y2="0%" id="SvgjsLinearGradient1025"><stop stop-color="rgba(255, 255, 255, 0)" offset="0"></stop><stop stop-color="rgba(255, 255, 255, 0.8)" offset="1"></stop></linearGradient><linearGradient x1="0%" y1="0%" x2="100%" y2="0%" id="SvgjsLinearGradient1026"><stop stop-color="rgba(255, 255, 255, 0)" offset="0"></stop><stop stop-color="rgba(255, 255, 255, 0.8)" offset="1"></stop></linearGradient></defs></svg>